<svg width="18" height="17" viewBox="0 0 18 17" fill="none" xmlns="http://www.w3.org/2000/svg">
<path fill-rule="evenodd" clip-rule="evenodd" d="M10.5514 1.22356C9.78293 0.574894 8.65868 0.574895 7.89017 1.22356L7.19027 1.81431C6.86362 2.09 6.45941 2.25745 6.03349 2.29347L5.12086 2.37064C4.11876 2.45539 3.3238 3.25035 3.23905 4.25245L3.16187 5.16508C3.12585 5.591 2.95841 5.99522 2.68271 6.32187L2.09197 7.02176C1.4433 7.79028 1.4433 8.91452 2.09197 9.68304L2.68271 10.3829C2.95841 10.7096 3.12585 11.1138 3.16187 11.5397L3.23905 12.4524C3.3238 13.4545 4.11876 14.2495 5.12086 14.3341L6.03349 14.4113C6.45941 14.4474 6.86362 14.6148 7.19028 14.8905L7.89017 15.4813C8.65868 16.1299 9.78293 16.1299 10.5514 15.4813L11.2513 14.8905C11.578 14.6148 11.9822 14.4474 12.4081 14.4113L13.3208 14.3341C14.3229 14.2495 15.1179 13.4545 15.2026 12.4524L15.2797 11.5397C15.3158 11.1138 15.4832 10.7096 15.7589 10.3829L16.3497 9.68304C16.9983 8.91452 16.9983 7.79028 16.3497 7.02176L15.7589 6.32186C15.4832 5.99522 15.3158 5.591 15.2797 5.16508L15.2026 4.25245C15.1179 3.25035 14.3229 2.45539 13.3208 2.37064L12.4081 2.29347C11.9822 2.25745 11.578 2.09 11.2513 1.81431L10.5514 1.22356ZM12.9722 6.94589C13.3347 6.58335 13.3347 5.99556 12.9722 5.63302C12.6097 5.27047 12.0218 5.27047 11.6593 5.63302L8.18976 9.10256L6.78321 7.69601C6.42067 7.33346 5.83287 7.33346 5.47033 7.69601C5.10778 8.05855 5.10778 8.64635 5.47033 9.00889L7.53332 11.0718C7.89586 11.4344 8.48366 11.4344 8.8462 11.0718L12.9722 6.94589Z" fill="#252430"/>
</svg>
