<svg width="169" height="68" viewBox="0 0 169 68" fill="none" xmlns="http://www.w3.org/2000/svg">
<path fill-rule="evenodd" clip-rule="evenodd" d="M46.8849 20.3665L33.0735 47.3665H20.1006L25.8807 36.1765H25.6213C20.8528 42.3667 13.738 46.4417 3.60059 47.3665V36.3314C3.60059 36.3314 10.0858 35.9483 13.8982 31.9401H3.60059V20.3667H15.174V29.8856L15.4338 29.8846L20.1631 20.3667H28.9158V29.8253L29.1754 29.8249L34.0822 20.3665H46.8849ZM122.2 44.3863H125.928V22.9915H122.2V44.3863ZM101.652 44.1678C102.462 44.5045 103.285 44.673 104.123 44.673C105.506 44.673 106.744 44.3362 107.837 43.6626C108.929 42.9891 109.775 42.0607 110.376 40.8774C110.977 39.685 111.277 38.3332 111.277 36.8223C111.277 35.3113 110.968 33.9597 110.349 32.7673C109.73 31.5749 108.87 30.651 107.768 29.9957C106.667 29.3312 105.415 29.0036 104.014 29.0126C103.122 29.0126 102.266 29.1856 101.447 29.5315C100.628 29.8774 99.9449 30.3689 99.3988 31.006C99.3566 31.0545 99.3157 31.1035 99.2759 31.153V23.0052H95.5349V44.3863H99.2486L99.2411 42.3889C99.3371 42.5067 99.4399 42.6217 99.5489 42.7342C100.141 43.3441 100.841 43.8219 101.652 44.1678ZM105.475 40.7136C104.865 41.0868 104.168 41.2734 103.385 41.2734C102.612 41.2734 101.902 41.0821 101.256 40.6999C100.609 40.3084 100.095 39.7761 99.7127 39.1024C99.3395 38.4289 99.1529 37.6642 99.1529 36.8086C99.1439 35.953 99.3259 35.1885 99.6991 34.5149C100.081 33.8323 100.596 33.3043 101.242 32.9312C101.888 32.5489 102.603 32.3623 103.385 32.3714C104.168 32.3623 104.865 32.5443 105.475 32.9175C106.093 33.2816 106.567 33.805 106.894 34.4876C107.231 35.1612 107.4 35.9349 107.4 36.8086C107.4 37.6825 107.231 38.4562 106.894 39.1297C106.567 39.8034 106.093 40.3312 105.475 40.7136ZM52.2847 24.2886H56.5445L60.3551 38.205L64.4089 24.2886H67.9588L72.3551 37.9257L76.0142 24.2886H79.919L74.1574 44.3863H70.4846L66.014 31.0639L61.9103 44.3863H58.1966L52.2847 24.2886ZM86.2101 44.7412C84.7263 44.7503 83.3883 44.4226 82.196 43.7582C81.0126 43.0846 80.0798 42.1516 79.397 40.9592C78.7235 39.7669 78.3867 38.4061 78.3867 36.8768C78.3867 35.3932 78.7326 34.0507 79.4244 32.8492C80.1161 31.6477 81.0536 30.7101 82.2369 30.0366C83.4203 29.363 84.74 29.0262 86.1963 29.0262C87.8348 29.0262 89.2683 29.3903 90.4971 30.1185C91.7351 30.8467 92.6589 31.8798 93.2688 33.2178C93.8877 34.5467 94.1108 36.0713 93.9378 37.7917H82.2428C82.2755 38.477 82.4465 39.1006 82.7558 39.6622C83.1017 40.2811 83.5841 40.7635 84.203 41.1094C84.822 41.4553 85.5137 41.6282 86.2784 41.6282C86.8608 41.6191 87.4025 41.519 87.903 41.3279C88.4037 41.1277 88.8269 40.8592 89.1728 40.5223C89.5278 40.1855 89.7782 39.8033 89.9238 39.3755H93.8286C93.5919 40.4222 93.1187 41.3552 92.4087 42.1744C91.6986 42.9845 90.8067 43.6171 89.7326 44.0722C88.6586 44.5273 87.4844 44.7503 86.2101 44.7412ZM82.7694 34.037C82.5513 34.4174 82.4001 34.8269 82.316 35.2658H90.0684C90.0122 34.7114 89.841 34.2063 89.5551 33.7503C89.2274 33.2133 88.7814 32.7991 88.2171 32.5078C87.6528 32.2075 87.0156 32.0573 86.3057 32.0573C85.5501 32.0573 84.863 32.2302 84.2439 32.5761C83.625 32.922 83.1335 33.409 82.7694 34.037ZM114.022 29.3403C114.022 28.1206 114.299 27.0374 114.855 26.0908C115.41 25.1351 116.188 24.3932 117.189 23.8653C118.2 23.3283 119.379 23.0507 120.726 23.0325V26.3502C120.097 26.3593 119.56 26.4913 119.115 26.7462C118.678 26.9919 118.341 27.3515 118.104 27.8248C117.886 28.2605 117.769 28.7657 117.751 29.3403H120.644V32.4942H117.749V44.3863H114.022V32.4942H111.619V29.3403H114.022ZM135.402 44.7138C133.882 44.7138 132.521 44.3816 131.32 43.7172C130.128 43.0436 129.19 42.1152 128.507 40.9319C127.834 39.7395 127.497 38.3879 127.497 36.8768C127.497 35.3568 127.834 34.0005 128.507 32.8081C129.19 31.6066 130.128 30.6737 131.32 30.0092C132.521 29.3447 133.882 29.0125 135.402 29.0125C136.931 29.0125 138.297 29.3447 139.498 30.0092C140.709 30.6737 141.651 31.6021 142.325 32.7945C142.998 33.9869 143.339 35.3477 143.349 36.8768C143.339 38.3879 142.998 39.7395 142.325 40.9319C141.66 42.1152 140.723 43.0436 139.512 43.7172C138.301 44.3816 136.931 44.7138 135.402 44.7138ZM135.402 41.2869C136.203 41.2869 136.913 41.1048 137.532 40.7408C138.151 40.3676 138.629 39.8487 138.966 39.1842C139.303 38.5107 139.471 37.7415 139.471 36.8768C139.471 36.003 139.303 35.2293 138.966 34.5558C138.629 33.8822 138.151 33.3634 137.532 32.9993C136.913 32.6261 136.203 32.4395 135.402 32.4395C134.611 32.4395 133.905 32.6261 133.286 32.9993C132.676 33.3634 132.203 33.8822 131.866 34.5558C131.529 35.2293 131.366 36.003 131.375 36.8768C131.375 37.7415 131.543 38.5107 131.88 39.1842C132.226 39.8487 132.699 40.3676 133.3 40.7408C133.91 41.1048 134.611 41.2869 135.402 41.2869ZM147.376 29.3403H143.226L147.718 44.3863H151.35L154.304 34.7764L157.493 44.3863H161.07L165.576 29.3403H161.822L159.266 38.7055L156.441 29.3403H152.81L150 38.9117L147.376 29.3403Z" fill="black"/>
<path d="M46.8849 20.3665L33.0735 47.3665H20.1006L25.8807 36.1765H25.6213C20.8528 42.3667 13.738 46.4417 3.60059 47.3665V36.3314C3.60059 36.3314 10.0858 35.9483 13.8982 31.9401H3.60059V20.3667H15.174V29.8856L15.4338 29.8846L20.1631 20.3667H28.9158V29.8253L29.1754 29.8249L34.0822 20.3665H46.8849ZM122.2 44.3863H125.928V22.9915H122.2V44.3863ZM101.652 44.1678C102.462 44.5045 103.285 44.673 104.123 44.673C105.506 44.673 106.744 44.3362 107.837 43.6626C108.929 42.9891 109.775 42.0607 110.376 40.8774C110.977 39.685 111.277 38.3332 111.277 36.8223C111.277 35.3113 110.968 33.9597 110.349 32.7673C109.73 31.5749 108.87 30.651 107.768 29.9957C106.667 29.3312 105.415 29.0036 104.014 29.0126C103.122 29.0126 102.266 29.1856 101.447 29.5315C100.628 29.8774 99.9449 30.3689 99.3988 31.006C99.3566 31.0545 99.3157 31.1035 99.2759 31.153V23.0052H95.5349V44.3863H99.2486L99.2411 42.3889C99.3371 42.5067 99.4399 42.6217 99.5489 42.7342C100.141 43.3441 100.841 43.8219 101.652 44.1678ZM105.475 40.7136C104.865 41.0868 104.168 41.2734 103.385 41.2734C102.612 41.2734 101.902 41.0821 101.256 40.6999C100.609 40.3084 100.095 39.7761 99.7127 39.1024C99.3395 38.4289 99.1529 37.6642 99.1529 36.8086C99.1439 35.953 99.3259 35.1885 99.6991 34.5149C100.081 33.8323 100.596 33.3043 101.242 32.9312C101.888 32.5489 102.603 32.3623 103.385 32.3714C104.168 32.3623 104.865 32.5443 105.475 32.9175C106.093 33.2816 106.567 33.805 106.894 34.4876C107.231 35.1612 107.4 35.9349 107.4 36.8086C107.4 37.6825 107.231 38.4562 106.894 39.1297C106.567 39.8034 106.093 40.3312 105.475 40.7136ZM52.2847 24.2886H56.5445L60.3551 38.205L64.4089 24.2886H67.9588L72.3551 37.9257L76.0142 24.2886H79.919L74.1574 44.3863H70.4846L66.014 31.0639L61.9103 44.3863H58.1966L52.2847 24.2886ZM86.2101 44.7412C84.7263 44.7503 83.3883 44.4226 82.196 43.7582C81.0126 43.0846 80.0798 42.1516 79.397 40.9592C78.7235 39.7669 78.3867 38.4061 78.3867 36.8768C78.3867 35.3932 78.7326 34.0507 79.4244 32.8492C80.1161 31.6477 81.0536 30.7101 82.2369 30.0366C83.4203 29.363 84.74 29.0262 86.1963 29.0262C87.8348 29.0262 89.2683 29.3903 90.4971 30.1185C91.7351 30.8467 92.6589 31.8798 93.2688 33.2178C93.8877 34.5467 94.1108 36.0713 93.9378 37.7917H82.2428C82.2755 38.477 82.4465 39.1006 82.7558 39.6622C83.1017 40.2811 83.5841 40.7635 84.203 41.1094C84.822 41.4553 85.5137 41.6282 86.2784 41.6282C86.8608 41.6191 87.4025 41.519 87.903 41.3279C88.4037 41.1277 88.8269 40.8592 89.1728 40.5223C89.5278 40.1855 89.7782 39.8033 89.9238 39.3755H93.8286C93.5919 40.4222 93.1187 41.3552 92.4087 42.1744C91.6986 42.9845 90.8067 43.6171 89.7326 44.0722C88.6586 44.5273 87.4844 44.7503 86.2101 44.7412ZM82.7694 34.037C82.5513 34.4174 82.4001 34.8269 82.316 35.2658H90.0684C90.0122 34.7114 89.841 34.2063 89.5551 33.7503C89.2274 33.2133 88.7814 32.7991 88.2171 32.5078C87.6528 32.2075 87.0156 32.0573 86.3057 32.0573C85.5501 32.0573 84.863 32.2302 84.2439 32.5761C83.625 32.922 83.1335 33.409 82.7694 34.037ZM114.022 29.3403C114.022 28.1206 114.299 27.0374 114.855 26.0908C115.41 25.1351 116.188 24.3932 117.189 23.8653C118.2 23.3283 119.379 23.0507 120.726 23.0325V26.3502C120.097 26.3593 119.56 26.4913 119.115 26.7462C118.678 26.9919 118.341 27.3515 118.104 27.8248C117.886 28.2605 117.769 28.7657 117.751 29.3403H120.644V32.4942H117.749V44.3863H114.022V32.4942H111.619V29.3403H114.022ZM135.402 44.7138C133.882 44.7138 132.521 44.3816 131.32 43.7172C130.128 43.0436 129.19 42.1152 128.507 40.9319C127.834 39.7395 127.497 38.3879 127.497 36.8768C127.497 35.3568 127.834 34.0005 128.507 32.8081C129.19 31.6066 130.128 30.6737 131.32 30.0092C132.521 29.3447 133.882 29.0125 135.402 29.0125C136.931 29.0125 138.297 29.3447 139.498 30.0092C140.709 30.6737 141.651 31.6021 142.325 32.7945C142.998 33.9869 143.339 35.3477 143.349 36.8768C143.339 38.3879 142.998 39.7395 142.325 40.9319C141.66 42.1152 140.723 43.0436 139.512 43.7172C138.301 44.3816 136.931 44.7138 135.402 44.7138ZM135.402 41.2869C136.203 41.2869 136.913 41.1048 137.532 40.7408C138.151 40.3676 138.629 39.8487 138.966 39.1842C139.303 38.5107 139.471 37.7415 139.471 36.8768C139.471 36.003 139.303 35.2293 138.966 34.5558C138.629 33.8822 138.151 33.3634 137.532 32.9993C136.913 32.6261 136.203 32.4395 135.402 32.4395C134.611 32.4395 133.905 32.6261 133.286 32.9993C132.676 33.3634 132.203 33.8822 131.866 34.5558C131.529 35.2293 131.366 36.003 131.375 36.8768C131.375 37.7415 131.543 38.5107 131.88 39.1842C132.226 39.8487 132.699 40.3676 133.3 40.7408C133.91 41.1048 134.611 41.2869 135.402 41.2869ZM147.376 29.3403H143.226L147.718 44.3863H151.35L154.304 34.7764L157.493 44.3863H161.07L165.576 29.3403H161.822L159.266 38.7055L156.441 29.3403H152.81L150 38.9117L147.376 29.3403Z" fill="black"/>
<path fill-rule="evenodd" clip-rule="evenodd" d="M46.8849 20.3665L33.0735 47.3665H20.1006L25.8807 36.1765H25.6213C20.8528 42.3667 13.738 46.4417 3.60059 47.3665V36.3314C3.60059 36.3314 10.0858 35.9483 13.8982 31.9401H3.60059V20.3667H15.174V29.8856L15.4338 29.8846L20.1631 20.3667H28.9158V29.8253L29.1754 29.8249L34.0822 20.3665H46.8849ZM122.2 44.3863H125.928V22.9915H122.2V44.3863ZM101.652 44.1678C102.462 44.5045 103.285 44.673 104.123 44.673C105.506 44.673 106.744 44.3362 107.837 43.6626C108.929 42.9891 109.775 42.0607 110.376 40.8774C110.977 39.685 111.277 38.3332 111.277 36.8223C111.277 35.3113 110.968 33.9597 110.349 32.7673C109.73 31.5749 108.87 30.651 107.768 29.9957C106.667 29.3312 105.415 29.0036 104.014 29.0126C103.122 29.0126 102.266 29.1856 101.447 29.5315C100.628 29.8774 99.9449 30.3689 99.3988 31.006C99.3566 31.0545 99.3157 31.1035 99.2759 31.153V23.0052H95.5349V44.3863H99.2486L99.2411 42.3889C99.3371 42.5067 99.4399 42.6217 99.5489 42.7342C100.141 43.3441 100.841 43.8219 101.652 44.1678ZM105.475 40.7136C104.865 41.0868 104.168 41.2734 103.385 41.2734C102.612 41.2734 101.902 41.0821 101.256 40.6999C100.609 40.3084 100.095 39.7761 99.7127 39.1024C99.3395 38.4289 99.1529 37.6642 99.1529 36.8086C99.1439 35.953 99.3259 35.1885 99.6991 34.5149C100.081 33.8323 100.596 33.3043 101.242 32.9312C101.888 32.5489 102.603 32.3623 103.385 32.3714C104.168 32.3623 104.865 32.5443 105.475 32.9175C106.093 33.2816 106.567 33.805 106.894 34.4876C107.231 35.1612 107.4 35.9349 107.4 36.8086C107.4 37.6825 107.231 38.4562 106.894 39.1297C106.567 39.8034 106.093 40.3312 105.475 40.7136ZM52.2847 24.2886H56.5445L60.3551 38.205L64.4089 24.2886H67.9588L72.3551 37.9257L76.0142 24.2886H79.919L74.1574 44.3863H70.4846L66.014 31.0639L61.9103 44.3863H58.1966L52.2847 24.2886ZM86.2101 44.7412C84.7263 44.7503 83.3883 44.4226 82.196 43.7582C81.0126 43.0846 80.0798 42.1516 79.397 40.9592C78.7235 39.7669 78.3867 38.4061 78.3867 36.8768C78.3867 35.3932 78.7326 34.0507 79.4244 32.8492C80.1161 31.6477 81.0536 30.7101 82.2369 30.0366C83.4203 29.363 84.74 29.0262 86.1963 29.0262C87.8348 29.0262 89.2683 29.3903 90.4971 30.1185C91.7351 30.8467 92.6589 31.8798 93.2688 33.2178C93.8877 34.5467 94.1108 36.0713 93.9378 37.7917H82.2428C82.2755 38.477 82.4465 39.1006 82.7558 39.6622C83.1017 40.2811 83.5841 40.7635 84.203 41.1094C84.822 41.4553 85.5137 41.6282 86.2784 41.6282C86.8608 41.6191 87.4025 41.519 87.903 41.3279C88.4037 41.1277 88.8269 40.8592 89.1728 40.5223C89.5278 40.1855 89.7782 39.8033 89.9238 39.3755H93.8286C93.5919 40.4222 93.1187 41.3552 92.4087 42.1744C91.6986 42.9845 90.8067 43.6171 89.7326 44.0722C88.6586 44.5273 87.4844 44.7503 86.2101 44.7412ZM82.7694 34.037C82.5513 34.4174 82.4001 34.8269 82.316 35.2658H90.0684C90.0122 34.7114 89.841 34.2063 89.5551 33.7503C89.2274 33.2133 88.7814 32.7991 88.2171 32.5078C87.6528 32.2075 87.0156 32.0573 86.3057 32.0573C85.5501 32.0573 84.863 32.2302 84.2439 32.5761C83.625 32.922 83.1335 33.409 82.7694 34.037ZM114.022 29.3403C114.022 28.1206 114.299 27.0374 114.855 26.0908C115.41 25.1351 116.188 24.3932 117.189 23.8653C118.2 23.3283 119.379 23.0507 120.726 23.0325V26.3502C120.097 26.3593 119.56 26.4913 119.115 26.7462C118.678 26.9919 118.341 27.3515 118.104 27.8248C117.886 28.2605 117.769 28.7657 117.751 29.3403H120.644V32.4942H117.749V44.3863H114.022V32.4942H111.619V29.3403H114.022ZM135.402 44.7138C133.882 44.7138 132.521 44.3816 131.32 43.7172C130.128 43.0436 129.19 42.1152 128.507 40.9319C127.834 39.7395 127.497 38.3879 127.497 36.8768C127.497 35.3568 127.834 34.0005 128.507 32.8081C129.19 31.6066 130.128 30.6737 131.32 30.0092C132.521 29.3447 133.882 29.0125 135.402 29.0125C136.931 29.0125 138.297 29.3447 139.498 30.0092C140.709 30.6737 141.651 31.6021 142.325 32.7945C142.998 33.9869 143.339 35.3477 143.349 36.8768C143.339 38.3879 142.998 39.7395 142.325 40.9319C141.66 42.1152 140.723 43.0436 139.512 43.7172C138.301 44.3816 136.931 44.7138 135.402 44.7138ZM135.402 41.2869C136.203 41.2869 136.913 41.1048 137.532 40.7408C138.151 40.3676 138.629 39.8487 138.966 39.1842C139.303 38.5107 139.471 37.7415 139.471 36.8768C139.471 36.003 139.303 35.2293 138.966 34.5558C138.629 33.8822 138.151 33.3634 137.532 32.9993C136.913 32.6261 136.203 32.4395 135.402 32.4395C134.611 32.4395 133.905 32.6261 133.286 32.9993C132.676 33.3634 132.203 33.8822 131.866 34.5558C131.529 35.2293 131.366 36.003 131.375 36.8768C131.375 37.7415 131.543 38.5107 131.88 39.1842C132.226 39.8487 132.699 40.3676 133.3 40.7408C133.91 41.1048 134.611 41.2869 135.402 41.2869ZM147.376 29.3403H143.226L147.718 44.3863H151.35L154.304 34.7764L157.493 44.3863H161.07L165.576 29.3403H161.822L159.266 38.7055L156.441 29.3403H152.81L150 38.9117L147.376 29.3403Z" fill="black"/>
<path d="M46.8849 20.3665L33.0735 47.3665H20.1006L25.8807 36.1765H25.6213C20.8528 42.3667 13.738 46.4417 3.60059 47.3665V36.3314C3.60059 36.3314 10.0858 35.9483 13.8982 31.9401H3.60059V20.3667H15.174V29.8856L15.4338 29.8846L20.1631 20.3667H28.9158V29.8253L29.1754 29.8249L34.0822 20.3665H46.8849ZM122.2 44.3863H125.928V22.9915H122.2V44.3863ZM101.652 44.1678C102.462 44.5045 103.285 44.673 104.123 44.673C105.506 44.673 106.744 44.3362 107.837 43.6626C108.929 42.9891 109.775 42.0607 110.376 40.8774C110.977 39.685 111.277 38.3332 111.277 36.8223C111.277 35.3113 110.968 33.9597 110.349 32.7673C109.73 31.5749 108.87 30.651 107.768 29.9957C106.667 29.3312 105.415 29.0036 104.014 29.0126C103.122 29.0126 102.266 29.1856 101.447 29.5315C100.628 29.8774 99.9449 30.3689 99.3988 31.006C99.3566 31.0545 99.3157 31.1035 99.2759 31.153V23.0052H95.5349V44.3863H99.2486L99.2411 42.3889C99.3371 42.5067 99.4399 42.6217 99.5489 42.7342C100.141 43.3441 100.841 43.8219 101.652 44.1678ZM105.475 40.7136C104.865 41.0868 104.168 41.2734 103.385 41.2734C102.612 41.2734 101.902 41.0821 101.256 40.6999C100.609 40.3084 100.095 39.7761 99.7127 39.1024C99.3395 38.4289 99.1529 37.6642 99.1529 36.8086C99.1439 35.953 99.3259 35.1885 99.6991 34.5149C100.081 33.8323 100.596 33.3043 101.242 32.9312C101.888 32.5489 102.603 32.3623 103.385 32.3714C104.168 32.3623 104.865 32.5443 105.475 32.9175C106.093 33.2816 106.567 33.805 106.894 34.4876C107.231 35.1612 107.4 35.9349 107.4 36.8086C107.4 37.6825 107.231 38.4562 106.894 39.1297C106.567 39.8034 106.093 40.3312 105.475 40.7136ZM52.2847 24.2886H56.5445L60.3551 38.205L64.4089 24.2886H67.9588L72.3551 37.9257L76.0142 24.2886H79.919L74.1574 44.3863H70.4846L66.014 31.0639L61.9103 44.3863H58.1966L52.2847 24.2886ZM86.2101 44.7412C84.7263 44.7503 83.3883 44.4226 82.196 43.7582C81.0126 43.0846 80.0798 42.1516 79.397 40.9592C78.7235 39.7669 78.3867 38.4061 78.3867 36.8768C78.3867 35.3932 78.7326 34.0507 79.4244 32.8492C80.1161 31.6477 81.0536 30.7101 82.2369 30.0366C83.4203 29.363 84.74 29.0262 86.1963 29.0262C87.8348 29.0262 89.2683 29.3903 90.4971 30.1185C91.7351 30.8467 92.6589 31.8798 93.2688 33.2178C93.8877 34.5467 94.1108 36.0713 93.9378 37.7917H82.2428C82.2755 38.477 82.4465 39.1006 82.7558 39.6622C83.1017 40.2811 83.5841 40.7635 84.203 41.1094C84.822 41.4553 85.5137 41.6282 86.2784 41.6282C86.8608 41.6191 87.4025 41.519 87.903 41.3279C88.4037 41.1277 88.8269 40.8592 89.1728 40.5223C89.5278 40.1855 89.7782 39.8033 89.9238 39.3755H93.8286C93.5919 40.4222 93.1187 41.3552 92.4087 42.1744C91.6986 42.9845 90.8067 43.6171 89.7326 44.0722C88.6586 44.5273 87.4844 44.7503 86.2101 44.7412ZM82.7694 34.037C82.5513 34.4174 82.4001 34.8269 82.316 35.2658H90.0684C90.0122 34.7114 89.841 34.2063 89.5551 33.7503C89.2274 33.2133 88.7814 32.7991 88.2171 32.5078C87.6528 32.2075 87.0156 32.0573 86.3057 32.0573C85.5501 32.0573 84.863 32.2302 84.2439 32.5761C83.625 32.922 83.1335 33.409 82.7694 34.037ZM114.022 29.3403C114.022 28.1206 114.299 27.0374 114.855 26.0908C115.41 25.1351 116.188 24.3932 117.189 23.8653C118.2 23.3283 119.379 23.0507 120.726 23.0325V26.3502C120.097 26.3593 119.56 26.4913 119.115 26.7462C118.678 26.9919 118.341 27.3515 118.104 27.8248C117.886 28.2605 117.769 28.7657 117.751 29.3403H120.644V32.4942H117.749V44.3863H114.022V32.4942H111.619V29.3403H114.022ZM135.402 44.7138C133.882 44.7138 132.521 44.3816 131.32 43.7172C130.128 43.0436 129.19 42.1152 128.507 40.9319C127.834 39.7395 127.497 38.3879 127.497 36.8768C127.497 35.3568 127.834 34.0005 128.507 32.8081C129.19 31.6066 130.128 30.6737 131.32 30.0092C132.521 29.3447 133.882 29.0125 135.402 29.0125C136.931 29.0125 138.297 29.3447 139.498 30.0092C140.709 30.6737 141.651 31.6021 142.325 32.7945C142.998 33.9869 143.339 35.3477 143.349 36.8768C143.339 38.3879 142.998 39.7395 142.325 40.9319C141.66 42.1152 140.723 43.0436 139.512 43.7172C138.301 44.3816 136.931 44.7138 135.402 44.7138ZM135.402 41.2869C136.203 41.2869 136.913 41.1048 137.532 40.7408C138.151 40.3676 138.629 39.8487 138.966 39.1842C139.303 38.5107 139.471 37.7415 139.471 36.8768C139.471 36.003 139.303 35.2293 138.966 34.5558C138.629 33.8822 138.151 33.3634 137.532 32.9993C136.913 32.6261 136.203 32.4395 135.402 32.4395C134.611 32.4395 133.905 32.6261 133.286 32.9993C132.676 33.3634 132.203 33.8822 131.866 34.5558C131.529 35.2293 131.366 36.003 131.375 36.8768C131.375 37.7415 131.543 38.5107 131.88 39.1842C132.226 39.8487 132.699 40.3676 133.3 40.7408C133.91 41.1048 134.611 41.2869 135.402 41.2869ZM147.376 29.3403H143.226L147.718 44.3863H151.35L154.304 34.7764L157.493 44.3863H161.07L165.576 29.3403H161.822L159.266 38.7055L156.441 29.3403H152.81L150 38.9117L147.376 29.3403Z" fill="black"/>
<path fill-rule="evenodd" clip-rule="evenodd" d="M46.8849 20.3665L33.0735 47.3665H20.1006L25.8807 36.1765H25.6213C20.8528 42.3667 13.738 46.4417 3.60059 47.3665V36.3314C3.60059 36.3314 10.0858 35.9483 13.8982 31.9401H3.60059V20.3667H15.174V29.8856L15.4338 29.8846L20.1631 20.3667H28.9158V29.8253L29.1754 29.8249L34.0822 20.3665H46.8849ZM122.2 44.3863H125.928V22.9915H122.2V44.3863ZM101.652 44.1678C102.462 44.5045 103.285 44.673 104.123 44.673C105.506 44.673 106.744 44.3362 107.837 43.6626C108.929 42.9891 109.775 42.0607 110.376 40.8774C110.977 39.685 111.277 38.3332 111.277 36.8223C111.277 35.3113 110.968 33.9597 110.349 32.7673C109.73 31.5749 108.87 30.651 107.768 29.9957C106.667 29.3312 105.415 29.0036 104.014 29.0126C103.122 29.0126 102.266 29.1856 101.447 29.5315C100.628 29.8774 99.9449 30.3689 99.3988 31.006C99.3566 31.0545 99.3157 31.1035 99.2759 31.153V23.0052H95.5349V44.3863H99.2486L99.2411 42.3889C99.3371 42.5067 99.4399 42.6217 99.5489 42.7342C100.141 43.3441 100.841 43.8219 101.652 44.1678ZM105.475 40.7136C104.865 41.0868 104.168 41.2734 103.385 41.2734C102.612 41.2734 101.902 41.0821 101.256 40.6999C100.609 40.3084 100.095 39.7761 99.7127 39.1024C99.3395 38.4289 99.1529 37.6642 99.1529 36.8086C99.1439 35.953 99.3259 35.1885 99.6991 34.5149C100.081 33.8323 100.596 33.3043 101.242 32.9312C101.888 32.5489 102.603 32.3623 103.385 32.3714C104.168 32.3623 104.865 32.5443 105.475 32.9175C106.093 33.2816 106.567 33.805 106.894 34.4876C107.231 35.1612 107.4 35.9349 107.4 36.8086C107.4 37.6825 107.231 38.4562 106.894 39.1297C106.567 39.8034 106.093 40.3312 105.475 40.7136ZM52.2847 24.2886H56.5445L60.3551 38.205L64.4089 24.2886H67.9588L72.3551 37.9257L76.0142 24.2886H79.919L74.1574 44.3863H70.4846L66.014 31.0639L61.9103 44.3863H58.1966L52.2847 24.2886ZM86.2101 44.7412C84.7263 44.7503 83.3883 44.4226 82.196 43.7582C81.0126 43.0846 80.0798 42.1516 79.397 40.9592C78.7235 39.7669 78.3867 38.4061 78.3867 36.8768C78.3867 35.3932 78.7326 34.0507 79.4244 32.8492C80.1161 31.6477 81.0536 30.7101 82.2369 30.0366C83.4203 29.363 84.74 29.0262 86.1963 29.0262C87.8348 29.0262 89.2683 29.3903 90.4971 30.1185C91.7351 30.8467 92.6589 31.8798 93.2688 33.2178C93.8877 34.5467 94.1108 36.0713 93.9378 37.7917H82.2428C82.2755 38.477 82.4465 39.1006 82.7558 39.6622C83.1017 40.2811 83.5841 40.7635 84.203 41.1094C84.822 41.4553 85.5137 41.6282 86.2784 41.6282C86.8608 41.6191 87.4025 41.519 87.903 41.3279C88.4037 41.1277 88.8269 40.8592 89.1728 40.5223C89.5278 40.1855 89.7782 39.8033 89.9238 39.3755H93.8286C93.5919 40.4222 93.1187 41.3552 92.4087 42.1744C91.6986 42.9845 90.8067 43.6171 89.7326 44.0722C88.6586 44.5273 87.4844 44.7503 86.2101 44.7412ZM82.7694 34.037C82.5513 34.4174 82.4001 34.8269 82.316 35.2658H90.0684C90.0122 34.7114 89.841 34.2063 89.5551 33.7503C89.2274 33.2133 88.7814 32.7991 88.2171 32.5078C87.6528 32.2075 87.0156 32.0573 86.3057 32.0573C85.5501 32.0573 84.863 32.2302 84.2439 32.5761C83.625 32.922 83.1335 33.409 82.7694 34.037ZM114.022 29.3403C114.022 28.1206 114.299 27.0374 114.855 26.0908C115.41 25.1351 116.188 24.3932 117.189 23.8653C118.2 23.3283 119.379 23.0507 120.726 23.0325V26.3502C120.097 26.3593 119.56 26.4913 119.115 26.7462C118.678 26.9919 118.341 27.3515 118.104 27.8248C117.886 28.2605 117.769 28.7657 117.751 29.3403H120.644V32.4942H117.749V44.3863H114.022V32.4942H111.619V29.3403H114.022ZM135.402 44.7138C133.882 44.7138 132.521 44.3816 131.32 43.7172C130.128 43.0436 129.19 42.1152 128.507 40.9319C127.834 39.7395 127.497 38.3879 127.497 36.8768C127.497 35.3568 127.834 34.0005 128.507 32.8081C129.19 31.6066 130.128 30.6737 131.32 30.0092C132.521 29.3447 133.882 29.0125 135.402 29.0125C136.931 29.0125 138.297 29.3447 139.498 30.0092C140.709 30.6737 141.651 31.6021 142.325 32.7945C142.998 33.9869 143.339 35.3477 143.349 36.8768C143.339 38.3879 142.998 39.7395 142.325 40.9319C141.66 42.1152 140.723 43.0436 139.512 43.7172C138.301 44.3816 136.931 44.7138 135.402 44.7138ZM135.402 41.2869C136.203 41.2869 136.913 41.1048 137.532 40.7408C138.151 40.3676 138.629 39.8487 138.966 39.1842C139.303 38.5107 139.471 37.7415 139.471 36.8768C139.471 36.003 139.303 35.2293 138.966 34.5558C138.629 33.8822 138.151 33.3634 137.532 32.9993C136.913 32.6261 136.203 32.4395 135.402 32.4395C134.611 32.4395 133.905 32.6261 133.286 32.9993C132.676 33.3634 132.203 33.8822 131.866 34.5558C131.529 35.2293 131.366 36.003 131.375 36.8768C131.375 37.7415 131.543 38.5107 131.88 39.1842C132.226 39.8487 132.699 40.3676 133.3 40.7408C133.91 41.1048 134.611 41.2869 135.402 41.2869ZM147.376 29.3403H143.226L147.718 44.3863H151.35L154.304 34.7764L157.493 44.3863H161.07L165.576 29.3403H161.822L159.266 38.7055L156.441 29.3403H152.81L150 38.9117L147.376 29.3403Z" fill="black"/>
<path d="M46.8849 20.3665L33.0735 47.3665H20.1006L25.8807 36.1765H25.6213C20.8528 42.3667 13.738 46.4417 3.60059 47.3665V36.3314C3.60059 36.3314 10.0858 35.9483 13.8982 31.9401H3.60059V20.3667H15.174V29.8856L15.4338 29.8846L20.1631 20.3667H28.9158V29.8253L29.1754 29.8249L34.0822 20.3665H46.8849ZM122.2 44.3863H125.928V22.9915H122.2V44.3863ZM101.652 44.1678C102.462 44.5045 103.285 44.673 104.123 44.673C105.506 44.673 106.744 44.3362 107.837 43.6626C108.929 42.9891 109.775 42.0607 110.376 40.8774C110.977 39.685 111.277 38.3332 111.277 36.8223C111.277 35.3113 110.968 33.9597 110.349 32.7673C109.73 31.5749 108.87 30.651 107.768 29.9957C106.667 29.3312 105.415 29.0036 104.014 29.0126C103.122 29.0126 102.266 29.1856 101.447 29.5315C100.628 29.8774 99.9449 30.3689 99.3988 31.006C99.3566 31.0545 99.3157 31.1035 99.2759 31.153V23.0052H95.5349V44.3863H99.2486L99.2411 42.3889C99.3371 42.5067 99.4399 42.6217 99.5489 42.7342C100.141 43.3441 100.841 43.8219 101.652 44.1678ZM105.475 40.7136C104.865 41.0868 104.168 41.2734 103.385 41.2734C102.612 41.2734 101.902 41.0821 101.256 40.6999C100.609 40.3084 100.095 39.7761 99.7127 39.1024C99.3395 38.4289 99.1529 37.6642 99.1529 36.8086C99.1439 35.953 99.3259 35.1885 99.6991 34.5149C100.081 33.8323 100.596 33.3043 101.242 32.9312C101.888 32.5489 102.603 32.3623 103.385 32.3714C104.168 32.3623 104.865 32.5443 105.475 32.9175C106.093 33.2816 106.567 33.805 106.894 34.4876C107.231 35.1612 107.4 35.9349 107.4 36.8086C107.4 37.6825 107.231 38.4562 106.894 39.1297C106.567 39.8034 106.093 40.3312 105.475 40.7136ZM52.2847 24.2886H56.5445L60.3551 38.205L64.4089 24.2886H67.9588L72.3551 37.9257L76.0142 24.2886H79.919L74.1574 44.3863H70.4846L66.014 31.0639L61.9103 44.3863H58.1966L52.2847 24.2886ZM86.2101 44.7412C84.7263 44.7503 83.3883 44.4226 82.196 43.7582C81.0126 43.0846 80.0798 42.1516 79.397 40.9592C78.7235 39.7669 78.3867 38.4061 78.3867 36.8768C78.3867 35.3932 78.7326 34.0507 79.4244 32.8492C80.1161 31.6477 81.0536 30.7101 82.2369 30.0366C83.4203 29.363 84.74 29.0262 86.1963 29.0262C87.8348 29.0262 89.2683 29.3903 90.4971 30.1185C91.7351 30.8467 92.6589 31.8798 93.2688 33.2178C93.8877 34.5467 94.1108 36.0713 93.9378 37.7917H82.2428C82.2755 38.477 82.4465 39.1006 82.7558 39.6622C83.1017 40.2811 83.5841 40.7635 84.203 41.1094C84.822 41.4553 85.5137 41.6282 86.2784 41.6282C86.8608 41.6191 87.4025 41.519 87.903 41.3279C88.4037 41.1277 88.8269 40.8592 89.1728 40.5223C89.5278 40.1855 89.7782 39.8033 89.9238 39.3755H93.8286C93.5919 40.4222 93.1187 41.3552 92.4087 42.1744C91.6986 42.9845 90.8067 43.6171 89.7326 44.0722C88.6586 44.5273 87.4844 44.7503 86.2101 44.7412ZM82.7694 34.037C82.5513 34.4174 82.4001 34.8269 82.316 35.2658H90.0684C90.0122 34.7114 89.841 34.2063 89.5551 33.7503C89.2274 33.2133 88.7814 32.7991 88.2171 32.5078C87.6528 32.2075 87.0156 32.0573 86.3057 32.0573C85.5501 32.0573 84.863 32.2302 84.2439 32.5761C83.625 32.922 83.1335 33.409 82.7694 34.037ZM114.022 29.3403C114.022 28.1206 114.299 27.0374 114.855 26.0908C115.41 25.1351 116.188 24.3932 117.189 23.8653C118.2 23.3283 119.379 23.0507 120.726 23.0325V26.3502C120.097 26.3593 119.56 26.4913 119.115 26.7462C118.678 26.9919 118.341 27.3515 118.104 27.8248C117.886 28.2605 117.769 28.7657 117.751 29.3403H120.644V32.4942H117.749V44.3863H114.022V32.4942H111.619V29.3403H114.022ZM135.402 44.7138C133.882 44.7138 132.521 44.3816 131.32 43.7172C130.128 43.0436 129.19 42.1152 128.507 40.9319C127.834 39.7395 127.497 38.3879 127.497 36.8768C127.497 35.3568 127.834 34.0005 128.507 32.8081C129.19 31.6066 130.128 30.6737 131.32 30.0092C132.521 29.3447 133.882 29.0125 135.402 29.0125C136.931 29.0125 138.297 29.3447 139.498 30.0092C140.709 30.6737 141.651 31.6021 142.325 32.7945C142.998 33.9869 143.339 35.3477 143.349 36.8768C143.339 38.3879 142.998 39.7395 142.325 40.9319C141.66 42.1152 140.723 43.0436 139.512 43.7172C138.301 44.3816 136.931 44.7138 135.402 44.7138ZM135.402 41.2869C136.203 41.2869 136.913 41.1048 137.532 40.7408C138.151 40.3676 138.629 39.8487 138.966 39.1842C139.303 38.5107 139.471 37.7415 139.471 36.8768C139.471 36.003 139.303 35.2293 138.966 34.5558C138.629 33.8822 138.151 33.3634 137.532 32.9993C136.913 32.6261 136.203 32.4395 135.402 32.4395C134.611 32.4395 133.905 32.6261 133.286 32.9993C132.676 33.3634 132.203 33.8822 131.866 34.5558C131.529 35.2293 131.366 36.003 131.375 36.8768C131.375 37.7415 131.543 38.5107 131.88 39.1842C132.226 39.8487 132.699 40.3676 133.3 40.7408C133.91 41.1048 134.611 41.2869 135.402 41.2869ZM147.376 29.3403H143.226L147.718 44.3863H151.35L154.304 34.7764L157.493 44.3863H161.07L165.576 29.3403H161.822L159.266 38.7055L156.441 29.3403H152.81L150 38.9117L147.376 29.3403Z" fill="black"/>
<path fill-rule="evenodd" clip-rule="evenodd" d="M46.8849 20.3665L33.0735 47.3665H20.1006L25.8807 36.1765H25.6213C20.8528 42.3667 13.738 46.4417 3.60059 47.3665V36.3314C3.60059 36.3314 10.0858 35.9483 13.8982 31.9401H3.60059V20.3667H15.174V29.8856L15.4338 29.8846L20.1631 20.3667H28.9158V29.8253L29.1754 29.8249L34.0822 20.3665H46.8849ZM122.2 44.3863H125.928V22.9915H122.2V44.3863ZM101.652 44.1678C102.462 44.5045 103.285 44.673 104.123 44.673C105.506 44.673 106.744 44.3362 107.837 43.6626C108.929 42.9891 109.775 42.0607 110.376 40.8774C110.977 39.685 111.277 38.3332 111.277 36.8223C111.277 35.3113 110.968 33.9597 110.349 32.7673C109.73 31.5749 108.87 30.651 107.768 29.9957C106.667 29.3312 105.415 29.0036 104.014 29.0126C103.122 29.0126 102.266 29.1856 101.447 29.5315C100.628 29.8774 99.9449 30.3689 99.3988 31.006C99.3566 31.0545 99.3157 31.1035 99.2759 31.153V23.0052H95.5349V44.3863H99.2486L99.2411 42.3889C99.3371 42.5067 99.4399 42.6217 99.5489 42.7342C100.141 43.3441 100.841 43.8219 101.652 44.1678ZM105.475 40.7136C104.865 41.0868 104.168 41.2734 103.385 41.2734C102.612 41.2734 101.902 41.0821 101.256 40.6999C100.609 40.3084 100.095 39.7761 99.7127 39.1024C99.3395 38.4289 99.1529 37.6642 99.1529 36.8086C99.1439 35.953 99.3259 35.1885 99.6991 34.5149C100.081 33.8323 100.596 33.3043 101.242 32.9312C101.888 32.5489 102.603 32.3623 103.385 32.3714C104.168 32.3623 104.865 32.5443 105.475 32.9175C106.093 33.2816 106.567 33.805 106.894 34.4876C107.231 35.1612 107.4 35.9349 107.4 36.8086C107.4 37.6825 107.231 38.4562 106.894 39.1297C106.567 39.8034 106.093 40.3312 105.475 40.7136ZM52.2847 24.2886H56.5445L60.3551 38.205L64.4089 24.2886H67.9588L72.3551 37.9257L76.0142 24.2886H79.919L74.1574 44.3863H70.4846L66.014 31.0639L61.9103 44.3863H58.1966L52.2847 24.2886ZM86.2101 44.7412C84.7263 44.7503 83.3883 44.4226 82.196 43.7582C81.0126 43.0846 80.0798 42.1516 79.397 40.9592C78.7235 39.7669 78.3867 38.4061 78.3867 36.8768C78.3867 35.3932 78.7326 34.0507 79.4244 32.8492C80.1161 31.6477 81.0536 30.7101 82.2369 30.0366C83.4203 29.363 84.74 29.0262 86.1963 29.0262C87.8348 29.0262 89.2683 29.3903 90.4971 30.1185C91.7351 30.8467 92.6589 31.8798 93.2688 33.2178C93.8877 34.5467 94.1108 36.0713 93.9378 37.7917H82.2428C82.2755 38.477 82.4465 39.1006 82.7558 39.6622C83.1017 40.2811 83.5841 40.7635 84.203 41.1094C84.822 41.4553 85.5137 41.6282 86.2784 41.6282C86.8608 41.6191 87.4025 41.519 87.903 41.3279C88.4037 41.1277 88.8269 40.8592 89.1728 40.5223C89.5278 40.1855 89.7782 39.8033 89.9238 39.3755H93.8286C93.5919 40.4222 93.1187 41.3552 92.4087 42.1744C91.6986 42.9845 90.8067 43.6171 89.7326 44.0722C88.6586 44.5273 87.4844 44.7503 86.2101 44.7412ZM82.7694 34.037C82.5513 34.4174 82.4001 34.8269 82.316 35.2658H90.0684C90.0122 34.7114 89.841 34.2063 89.5551 33.7503C89.2274 33.2133 88.7814 32.7991 88.2171 32.5078C87.6528 32.2075 87.0156 32.0573 86.3057 32.0573C85.5501 32.0573 84.863 32.2302 84.2439 32.5761C83.625 32.922 83.1335 33.409 82.7694 34.037ZM114.022 29.3403C114.022 28.1206 114.299 27.0374 114.855 26.0908C115.41 25.1351 116.188 24.3932 117.189 23.8653C118.2 23.3283 119.379 23.0507 120.726 23.0325V26.3502C120.097 26.3593 119.56 26.4913 119.115 26.7462C118.678 26.9919 118.341 27.3515 118.104 27.8248C117.886 28.2605 117.769 28.7657 117.751 29.3403H120.644V32.4942H117.749V44.3863H114.022V32.4942H111.619V29.3403H114.022ZM135.402 44.7138C133.882 44.7138 132.521 44.3816 131.32 43.7172C130.128 43.0436 129.19 42.1152 128.507 40.9319C127.834 39.7395 127.497 38.3879 127.497 36.8768C127.497 35.3568 127.834 34.0005 128.507 32.8081C129.19 31.6066 130.128 30.6737 131.32 30.0092C132.521 29.3447 133.882 29.0125 135.402 29.0125C136.931 29.0125 138.297 29.3447 139.498 30.0092C140.709 30.6737 141.651 31.6021 142.325 32.7945C142.998 33.9869 143.339 35.3477 143.349 36.8768C143.339 38.3879 142.998 39.7395 142.325 40.9319C141.66 42.1152 140.723 43.0436 139.512 43.7172C138.301 44.3816 136.931 44.7138 135.402 44.7138ZM135.402 41.2869C136.203 41.2869 136.913 41.1048 137.532 40.7408C138.151 40.3676 138.629 39.8487 138.966 39.1842C139.303 38.5107 139.471 37.7415 139.471 36.8768C139.471 36.003 139.303 35.2293 138.966 34.5558C138.629 33.8822 138.151 33.3634 137.532 32.9993C136.913 32.6261 136.203 32.4395 135.402 32.4395C134.611 32.4395 133.905 32.6261 133.286 32.9993C132.676 33.3634 132.203 33.8822 131.866 34.5558C131.529 35.2293 131.366 36.003 131.375 36.8768C131.375 37.7415 131.543 38.5107 131.88 39.1842C132.226 39.8487 132.699 40.3676 133.3 40.7408C133.91 41.1048 134.611 41.2869 135.402 41.2869ZM147.376 29.3403H143.226L147.718 44.3863H151.35L154.304 34.7764L157.493 44.3863H161.07L165.576 29.3403H161.822L159.266 38.7055L156.441 29.3403H152.81L150 38.9117L147.376 29.3403Z" fill="black"/>
<path d="M46.8849 20.3665L33.0735 47.3665H20.1006L25.8807 36.1765H25.6213C20.8528 42.3667 13.738 46.4417 3.60059 47.3665V36.3314C3.60059 36.3314 10.0858 35.9483 13.8982 31.9401H3.60059V20.3667H15.174V29.8856L15.4338 29.8846L20.1631 20.3667H28.9158V29.8253L29.1754 29.8249L34.0822 20.3665H46.8849ZM122.2 44.3863H125.928V22.9915H122.2V44.3863ZM101.652 44.1678C102.462 44.5045 103.285 44.673 104.123 44.673C105.506 44.673 106.744 44.3362 107.837 43.6626C108.929 42.9891 109.775 42.0607 110.376 40.8774C110.977 39.685 111.277 38.3332 111.277 36.8223C111.277 35.3113 110.968 33.9597 110.349 32.7673C109.73 31.5749 108.87 30.651 107.768 29.9957C106.667 29.3312 105.415 29.0036 104.014 29.0126C103.122 29.0126 102.266 29.1856 101.447 29.5315C100.628 29.8774 99.9449 30.3689 99.3988 31.006C99.3566 31.0545 99.3157 31.1035 99.2759 31.153V23.0052H95.5349V44.3863H99.2486L99.2411 42.3889C99.3371 42.5067 99.4399 42.6217 99.5489 42.7342C100.141 43.3441 100.841 43.8219 101.652 44.1678ZM105.475 40.7136C104.865 41.0868 104.168 41.2734 103.385 41.2734C102.612 41.2734 101.902 41.0821 101.256 40.6999C100.609 40.3084 100.095 39.7761 99.7127 39.1024C99.3395 38.4289 99.1529 37.6642 99.1529 36.8086C99.1439 35.953 99.3259 35.1885 99.6991 34.5149C100.081 33.8323 100.596 33.3043 101.242 32.9312C101.888 32.5489 102.603 32.3623 103.385 32.3714C104.168 32.3623 104.865 32.5443 105.475 32.9175C106.093 33.2816 106.567 33.805 106.894 34.4876C107.231 35.1612 107.4 35.9349 107.4 36.8086C107.4 37.6825 107.231 38.4562 106.894 39.1297C106.567 39.8034 106.093 40.3312 105.475 40.7136ZM52.2847 24.2886H56.5445L60.3551 38.205L64.4089 24.2886H67.9588L72.3551 37.9257L76.0142 24.2886H79.919L74.1574 44.3863H70.4846L66.014 31.0639L61.9103 44.3863H58.1966L52.2847 24.2886ZM86.2101 44.7412C84.7263 44.7503 83.3883 44.4226 82.196 43.7582C81.0126 43.0846 80.0798 42.1516 79.397 40.9592C78.7235 39.7669 78.3867 38.4061 78.3867 36.8768C78.3867 35.3932 78.7326 34.0507 79.4244 32.8492C80.1161 31.6477 81.0536 30.7101 82.2369 30.0366C83.4203 29.363 84.74 29.0262 86.1963 29.0262C87.8348 29.0262 89.2683 29.3903 90.4971 30.1185C91.7351 30.8467 92.6589 31.8798 93.2688 33.2178C93.8877 34.5467 94.1108 36.0713 93.9378 37.7917H82.2428C82.2755 38.477 82.4465 39.1006 82.7558 39.6622C83.1017 40.2811 83.5841 40.7635 84.203 41.1094C84.822 41.4553 85.5137 41.6282 86.2784 41.6282C86.8608 41.6191 87.4025 41.519 87.903 41.3279C88.4037 41.1277 88.8269 40.8592 89.1728 40.5223C89.5278 40.1855 89.7782 39.8033 89.9238 39.3755H93.8286C93.5919 40.4222 93.1187 41.3552 92.4087 42.1744C91.6986 42.9845 90.8067 43.6171 89.7326 44.0722C88.6586 44.5273 87.4844 44.7503 86.2101 44.7412ZM82.7694 34.037C82.5513 34.4174 82.4001 34.8269 82.316 35.2658H90.0684C90.0122 34.7114 89.841 34.2063 89.5551 33.7503C89.2274 33.2133 88.7814 32.7991 88.2171 32.5078C87.6528 32.2075 87.0156 32.0573 86.3057 32.0573C85.5501 32.0573 84.863 32.2302 84.2439 32.5761C83.625 32.922 83.1335 33.409 82.7694 34.037ZM114.022 29.3403C114.022 28.1206 114.299 27.0374 114.855 26.0908C115.41 25.1351 116.188 24.3932 117.189 23.8653C118.2 23.3283 119.379 23.0507 120.726 23.0325V26.3502C120.097 26.3593 119.56 26.4913 119.115 26.7462C118.678 26.9919 118.341 27.3515 118.104 27.8248C117.886 28.2605 117.769 28.7657 117.751 29.3403H120.644V32.4942H117.749V44.3863H114.022V32.4942H111.619V29.3403H114.022ZM135.402 44.7138C133.882 44.7138 132.521 44.3816 131.32 43.7172C130.128 43.0436 129.19 42.1152 128.507 40.9319C127.834 39.7395 127.497 38.3879 127.497 36.8768C127.497 35.3568 127.834 34.0005 128.507 32.8081C129.19 31.6066 130.128 30.6737 131.32 30.0092C132.521 29.3447 133.882 29.0125 135.402 29.0125C136.931 29.0125 138.297 29.3447 139.498 30.0092C140.709 30.6737 141.651 31.6021 142.325 32.7945C142.998 33.9869 143.339 35.3477 143.349 36.8768C143.339 38.3879 142.998 39.7395 142.325 40.9319C141.66 42.1152 140.723 43.0436 139.512 43.7172C138.301 44.3816 136.931 44.7138 135.402 44.7138ZM135.402 41.2869C136.203 41.2869 136.913 41.1048 137.532 40.7408C138.151 40.3676 138.629 39.8487 138.966 39.1842C139.303 38.5107 139.471 37.7415 139.471 36.8768C139.471 36.003 139.303 35.2293 138.966 34.5558C138.629 33.8822 138.151 33.3634 137.532 32.9993C136.913 32.6261 136.203 32.4395 135.402 32.4395C134.611 32.4395 133.905 32.6261 133.286 32.9993C132.676 33.3634 132.203 33.8822 131.866 34.5558C131.529 35.2293 131.366 36.003 131.375 36.8768C131.375 37.7415 131.543 38.5107 131.88 39.1842C132.226 39.8487 132.699 40.3676 133.3 40.7408C133.91 41.1048 134.611 41.2869 135.402 41.2869ZM147.376 29.3403H143.226L147.718 44.3863H151.35L154.304 34.7764L157.493 44.3863H161.07L165.576 29.3403H161.822L159.266 38.7055L156.441 29.3403H152.81L150 38.9117L147.376 29.3403Z" fill="black"/>
</svg>
