<svg width="25" height="23" viewBox="0 0 25 23" fill="none" xmlns="http://www.w3.org/2000/svg">
<path d="M11.0852 0.801585C11.4977 -0.178166 12.9026 -0.178165 13.3151 0.801587L15.7497 6.58425C15.9237 6.99729 16.3169 7.27951 16.7682 7.31525L23.0874 7.81575C24.1581 7.90055 24.5922 9.22053 23.7765 9.91085L18.9619 13.9852C18.6181 14.2762 18.4678 14.7329 18.5729 15.168L20.0438 21.26C20.293 22.2921 19.1565 23.108 18.2398 22.5549L12.8296 19.2902C12.4432 19.057 11.9572 19.057 11.5708 19.2902L6.16058 22.5549C5.24393 23.108 4.10734 22.2921 4.35656 21.26L5.8275 15.168C5.93257 14.7329 5.78238 14.2762 5.4385 13.9852L0.62387 9.91085C-0.191866 9.22053 0.242277 7.90055 1.31294 7.81575L7.63222 7.31525C8.0836 7.27951 8.47678 6.99729 8.65068 6.58425L11.0852 0.801585Z" fill="black"/>
</svg>
